<svg xmlns="http://www.w3.org/2000/svg" viewBox="0 0 81.01 53.97"><defs><style>.cls-1{fill:#fff;}</style></defs><g id="Layer_2" data-name="Layer 2"><g id="Layer_1-2" data-name="Layer 1"><path class="cls-1" d="M32.3,40C27.79,35.64,19.91,32.79,11,36.56l-.27.13V22.52c.11.29.23.58.36.86a20.36,20.36,0,0,1-1.19-5.12v-11h0v5.82H0V53.91H10.69c1.49-6,4.43-8.57,9.32-8.22,4.07.29,7.12,3.55,7.59,8.28H38.38A19,19,0,0,0,32.3,40Z"/><path class="cls-1" d="M37,15.56a8.47,8.47,0,0,1-10.29,8.09,8.79,8.79,0,0,1-6.43-6.86v-3.7H25.6v-.16a4.25,4.25,0,0,1-.89-2.75,4.2,4.2,0,0,1,.89-2.74V7.27H20.25V0H0V7.27H9.86v11a20.36,20.36,0,0,0,1.19,5.12,19.32,19.32,0,0,0,15.4,11.21A19.15,19.15,0,0,0,46.93,20.94a54.11,54.11,0,0,0,1-5.38Z"/><path class="cls-1" d="M80.94,34.22A19.16,19.16,0,0,0,43,30.76c-.26,1.29-.31,2.63-.47,4H53.39c.4-4,2.25-6.78,6-7.93a7.89,7.89,0,0,1,8.48,2.33,8.51,8.51,0,0,1,2.13,7.4C61.1,32.79,53.22,35.64,48.71,40a19,19,0,0,0-6.08,14H53.41c.47-4.73,3.52-8,7.59-8.28,4.89-.35,7.83,2.23,9.32,8.22H80.89c0-.29.08-.51.08-.73C81,46.86,81.09,40.54,80.94,34.22Z"/><path class="cls-1" d="M28.67,11.51a1.68,1.68,0,0,1-1.15-.44A1.58,1.58,0,0,1,27.07,10a1.59,1.59,0,0,1,.12-.62,1.39,1.39,0,0,1,.34-.49A1.34,1.34,0,0,1,28,8.52a1.61,1.61,0,0,1,.63-.12,1.9,1.9,0,0,1,.63.11,1.31,1.31,0,0,1,.49.34l-.2.2a1.24,1.24,0,0,0-.42-.28,1.53,1.53,0,0,0-.49-.08,1.44,1.44,0,0,0-.51.09,1.13,1.13,0,0,0-.41.27,1.09,1.09,0,0,0-.27.4,1.18,1.18,0,0,0-.1.5,1.19,1.19,0,0,0,.1.51,1.18,1.18,0,0,0,.27.4,1.46,1.46,0,0,0,.41.27,1.44,1.44,0,0,0,.51.09,1.3,1.3,0,0,0,.49-.09,1.24,1.24,0,0,0,.42-.28l.2.21a1.18,1.18,0,0,1-.49.33A1.68,1.68,0,0,1,28.67,11.51Z"/><path class="cls-1" d="M32.8,11.51a1.66,1.66,0,0,1-.64-.12,1.36,1.36,0,0,1-.51-.33,1.39,1.39,0,0,1-.34-.49,1.56,1.56,0,0,1-.12-.62,1.51,1.51,0,0,1,.12-.61,1.43,1.43,0,0,1,.34-.5,1.34,1.34,0,0,1,.51-.32,1.66,1.66,0,0,1,.64-.12,1.69,1.69,0,0,1,.64.12,1.52,1.52,0,0,1,.84.81,1.59,1.59,0,0,1,.12.62,1.56,1.56,0,0,1-.12.62,1.43,1.43,0,0,1-.34.5,1.53,1.53,0,0,1-.5.32A1.69,1.69,0,0,1,32.8,11.51Zm0-.29a1.44,1.44,0,0,0,.51-.09,1.41,1.41,0,0,0,.4-.27,1.18,1.18,0,0,0,.27-.4,1.33,1.33,0,0,0,0-1,1.27,1.27,0,0,0-.67-.67,1.44,1.44,0,0,0-.51-.09,1.36,1.36,0,0,0-.51.09,1,1,0,0,0-.41.27,1.09,1.09,0,0,0-.27.4,1.18,1.18,0,0,0-.1.5,1.25,1.25,0,0,0,.1.51,1.18,1.18,0,0,0,.27.4,1.33,1.33,0,0,0,.41.27A1.36,1.36,0,0,0,32.8,11.22Z"/><path class="cls-1" d="M36.17,11.48V8.43h.27l1.4,2.38H37.7l1.38-2.38h.27v3.05H39V8.91h.07l-1.27,2.18h-.16L36.4,8.91h.08v2.57Z"/><path class="cls-1" d="M41.39,11.48V8.43h.26l1.4,2.38h-.14L44.3,8.43h.26v3.05h-.31V8.91h.08l-1.28,2.18H42.9L41.62,8.91h.08v2.57Z"/><path class="cls-1" d="M47.84,11.51a1.25,1.25,0,0,1-.93-.34,1.34,1.34,0,0,1-.33-1V8.43h.32v1.73a1.1,1.1,0,0,0,.25.8.9.9,0,0,0,.69.26.92.92,0,0,0,.69-.26,1.14,1.14,0,0,0,.24-.8V8.43h.32v1.75a1.31,1.31,0,0,1-.34,1A1.19,1.19,0,0,1,47.84,11.51Z"/><path class="cls-1" d="M51.11,11.48V8.43h.27l2.1,2.65h-.14V8.43h.32v3.05H53.4L51.29,8.83h.14v2.65Z"/><path class="cls-1" d="M55.71,11.48V8.43H56v3.05Z"/><path class="cls-1" d="M59.4,11.51a1.68,1.68,0,0,1-1.15-.44A1.58,1.58,0,0,1,57.8,10a1.59,1.59,0,0,1,.12-.62,1.39,1.39,0,0,1,.34-.49,1.34,1.34,0,0,1,.51-.32,1.61,1.61,0,0,1,.63-.12,1.9,1.9,0,0,1,.63.11,1.31,1.31,0,0,1,.49.34l-.21.2a1.11,1.11,0,0,0-.41-.28,1.53,1.53,0,0,0-.49-.08,1.44,1.44,0,0,0-.51.09,1.13,1.13,0,0,0-.41.27,1.09,1.09,0,0,0-.27.4,1.18,1.18,0,0,0-.1.5,1.19,1.19,0,0,0,.1.51,1.18,1.18,0,0,0,.27.4,1.46,1.46,0,0,0,.41.27,1.44,1.44,0,0,0,.51.09,1.3,1.3,0,0,0,.49-.09,1.11,1.11,0,0,0,.41-.28l.21.21a1.18,1.18,0,0,1-.49.33A1.68,1.68,0,0,1,59.4,11.51Z"/><path class="cls-1" d="M61.69,11.48l1.4-3.05h.32l1.39,3.05h-.34L63.18,8.61h.13L62,11.48Zm.55-.81.1-.27h1.77l.1.27Z"/><path class="cls-1" d="M66.8,11.48V8.71H65.72V8.43h2.47v.28H67.12v2.77Z"/><path class="cls-1" d="M69.76,11.48V8.43h.32v3.05Z"/><path class="cls-1" d="M73.46,11.51a1.66,1.66,0,0,1-.64-.12,1.36,1.36,0,0,1-.51-.33,1.39,1.39,0,0,1-.34-.49,1.56,1.56,0,0,1-.12-.62A1.51,1.51,0,0,1,72,9.34a1.43,1.43,0,0,1,.34-.5,1.34,1.34,0,0,1,.51-.32,1.62,1.62,0,0,1,.64-.12,1.69,1.69,0,0,1,.64.12,1.52,1.52,0,0,1,.84.81,1.59,1.59,0,0,1,.12.62,1.56,1.56,0,0,1-.12.62,1.43,1.43,0,0,1-.34.5,1.53,1.53,0,0,1-.5.32A1.69,1.69,0,0,1,73.46,11.51Zm0-.29a1.44,1.44,0,0,0,.51-.09,1.41,1.41,0,0,0,.4-.27,1.18,1.18,0,0,0,.27-.4,1.33,1.33,0,0,0,0-1A1.27,1.27,0,0,0,74,8.78a1.44,1.44,0,0,0-.51-.09,1.36,1.36,0,0,0-.51.09,1,1,0,0,0-.41.27,1.09,1.09,0,0,0-.27.4,1.18,1.18,0,0,0-.1.5,1.25,1.25,0,0,0,.1.51,1.18,1.18,0,0,0,.27.4,1.33,1.33,0,0,0,.41.27A1.36,1.36,0,0,0,73.46,11.22Z"/><path class="cls-1" d="M76.83,11.48V8.43h.27l2.11,2.65h-.14V8.43h.32v3.05h-.27L77,8.83h.13v2.65Z"/></g></g></svg>